<svg width="13" height="13" viewBox="0 0 13 13" fill="none" xmlns="http://www.w3.org/2000/svg">
<path d="M12.366 6.5C12.366 5.96033 11.929 5.52232 11.3883 5.52232H7.47768V1.61168C7.47768 1.072 7.04066 0.633993 6.5 0.633993C5.95934 0.633993 5.52232 1.072 5.52232 1.61168V5.52232H1.61168C1.07102 5.52232 0.633993 5.96033 0.633993 6.5C0.633993 7.03967 1.07102 7.47768 1.61168 7.47768H5.52232V11.3883C5.52232 11.928 5.95934 12.366 6.5 12.366C7.04066 12.366 7.47768 11.928 7.47768 11.3883V7.47768H11.3883C11.929 7.47768 12.366 7.03967 12.366 6.5Z" fill="#475356"/>
</svg>
