<svg width="83" height="64" viewBox="0 0 83 64" fill="none" xmlns="http://www.w3.org/2000/svg">
<path d="M17.9629 30.2104H12.2946V24.5421C12.2946 23.4151 11.3817 22.5 10.2525 22.5C9.12323 22.5 8.21038 23.4151 8.21038 24.5421V30.2104H2.54211C1.41285 30.2104 0.5 31.1254 0.5 32.2525C0.5 33.3795 1.41285 34.2946 2.54211 34.2946H8.21038V39.9629C8.21038 41.0899 9.12323 42.005 10.2525 42.005C11.3817 42.005 12.2946 41.0899 12.2946 39.9629V34.2946H17.9629C19.0921 34.2946 20.005 33.3795 20.005 32.2525C20.005 31.1254 19.0921 30.2104 17.9629 30.2104Z" fill="black" stroke="black"/>
<path d="M77.0312 40.75H31.1769C28.3222 40.75 26 38.4278 26 35.5731V28.1774C26 25.3222 28.3222 23 31.1769 23H77.0312C79.8859 23 82.2082 25.3222 82.2082 28.1774V35.5731C82.2082 38.4278 79.8859 40.75 77.0312 40.75ZM31.1769 27.4375C30.7685 27.4375 30.4375 27.769 30.4375 28.1774V35.5731C30.4375 35.9815 30.7685 36.3125 31.1769 36.3125H77.0312C77.4391 36.3125 77.7707 35.9815 77.7707 35.5731V28.1774C77.7707 27.769 77.4391 27.4375 77.0312 27.4375H31.1769Z" fill="#757575"/>
<path d="M54.1038 40.75C52.8791 40.75 51.8851 39.756 51.8851 38.5313V25.2188C51.8851 23.994 52.8791 23 54.1038 23C55.3286 23 56.3226 23.994 56.3226 25.2188V38.5313C56.3226 39.756 55.3286 40.75 54.1038 40.75Z" fill="#757575"/>
<path d="M71.0312 63.75H25.1769C22.3222 63.75 20 61.4278 20 58.5731V51.1774C20 48.3222 22.3222 46 25.1769 46H71.0312C73.8859 46 76.2082 48.3222 76.2082 51.1774V58.5731C76.2082 61.4278 73.8859 63.75 71.0312 63.75ZM25.1769 50.4375C24.7685 50.4375 24.4375 50.769 24.4375 51.1774V58.5731C24.4375 58.9815 24.7685 59.3125 25.1769 59.3125H71.0312C71.4391 59.3125 71.7707 58.9815 71.7707 58.5731V51.1774C71.7707 50.769 71.4391 50.4375 71.0312 50.4375H25.1769Z" fill="black"/>
<path d="M48.1038 63.75C46.8791 63.75 45.8851 62.756 45.8851 61.5313V48.2188C45.8851 46.994 46.8791 46 48.1038 46C49.3286 46 50.3226 46.994 50.3226 48.2188V61.5313C50.3226 62.756 49.3286 63.75 48.1038 63.75Z" fill="black"/>
<path d="M71.0312 17.75H25.1769C22.3222 17.75 20 15.4278 20 12.5731V5.17744C20 2.32221 22.3222 0 25.1769 0H71.0312C73.8859 0 76.2082 2.32221 76.2082 5.17744V12.5731C76.2082 15.4278 73.8859 17.75 71.0312 17.75ZM25.1769 4.4375C24.7685 4.4375 24.4375 4.76901 24.4375 5.17744V12.5731C24.4375 12.9815 24.7685 13.3125 25.1769 13.3125H71.0312C71.4391 13.3125 71.7707 12.9815 71.7707 12.5731V5.17744C71.7707 4.76901 71.4391 4.4375 71.0312 4.4375H25.1769Z" fill="black"/>
<path d="M48.1038 17.75C46.8791 17.75 45.8851 16.756 45.8851 15.5313V2.21875C45.8851 0.993995 46.8791 0 48.1038 0C49.3286 0 50.3226 0.993995 50.3226 2.21875V15.5313C50.3226 16.756 49.3286 17.75 48.1038 17.75Z" fill="black"/>
</svg>
