<svg width="18" height="18" viewBox="0 0 18 18" fill="none" xmlns="http://www.w3.org/2000/svg">
<path fill-rule="evenodd" clip-rule="evenodd" d="M14.25 2.25H3.75C2.92157 2.25 2.25 2.92157 2.25 3.75V14.25C2.25 15.0784 2.92157 15.75 3.75 15.75H14.25C15.0784 15.75 15.75 15.0784 15.75 14.25V3.75C15.75 2.92157 15.0784 2.25 14.25 2.25ZM3.75 0C1.67893 0 0 1.67893 0 3.75V14.25C0 16.3211 1.67893 18 3.75 18H14.25C16.3211 18 18 16.3211 18 14.25V3.75C18 1.67893 16.3211 0 14.25 0H3.75Z" fill="#475356"/>
<path fill-rule="evenodd" clip-rule="evenodd" d="M13.8947 10.4211H4.42105V7.89474H13.8947V10.4211Z" fill="#475356"/>
</svg>
