<svg width="21" height="18" viewBox="0 0 21 18" fill="none" xmlns="http://www.w3.org/2000/svg">
<path fill-rule="evenodd" clip-rule="evenodd" d="M3.75 2.25H14.25C14.3795 2.25 14.5051 2.26641 14.625 2.29726L16.3341 0.631971C15.738 0.232805 15.0212 0 14.25 0H3.75C1.67893 0 0 1.67893 0 3.75V14.25C0 16.3211 1.67893 18 3.75 18H14.25C16.3211 18 18 16.3211 18 14.25V9.375L15.75 11.625V14.25C15.75 15.0784 15.0784 15.75 14.25 15.75H3.75C2.92157 15.75 2.25 15.0784 2.25 14.25V3.75C2.25 2.92157 2.92157 2.25 3.75 2.25Z" fill="#475356"/>
<path d="M20.1793 4.03948L9.48403 14.183C9.38982 14.2723 9.23728 14.2723 9.1433 14.183L3.07049 8.42329C2.9765 8.33436 2.9765 8.1897 3.07049 8.10035L4.5461 6.70087C4.64031 6.61173 4.79284 6.61173 4.88683 6.70087L9.31388 10.8993L18.3632 2.31685C18.4577 2.22772 18.6097 2.22772 18.704 2.31685L20.1793 3.71633C20.2736 3.80547 20.2736 3.94993 20.1793 4.03948Z" fill="#475356"/>
</svg>
