<svg width="26" height="25" viewBox="0 0 26 25" fill="none" xmlns="http://www.w3.org/2000/svg">
<g clip-path="url(#clip0)">
<path d="M13.0396 24.6306C19.7949 24.6306 25.2712 19.1543 25.2712 12.399C25.2712 5.64376 19.7949 0.167511 13.0396 0.167511C6.28435 0.167511 0.808105 5.64376 0.808105 12.399C0.808105 19.1543 6.28435 24.6306 13.0396 24.6306Z" fill="#FFC10E"/>
<path d="M9.32138 10.1012C10.3823 10.1012 11.2424 9.24111 11.2424 8.18017C11.2424 7.11924 10.3823 6.25919 9.32138 6.25919C8.26045 6.25919 7.40039 7.11924 7.40039 8.18017C7.40039 9.24111 8.26045 10.1012 9.32138 10.1012Z" fill="#333333"/>
<path d="M16.5855 10.1012C17.6465 10.1012 18.5065 9.24111 18.5065 8.18017C18.5065 7.11924 17.6465 6.25919 16.5855 6.25919C15.5246 6.25919 14.6646 7.11924 14.6646 8.18017C14.6646 9.24111 15.5246 10.1012 16.5855 10.1012Z" fill="#333333"/>
<path d="M6.24205 17.0247C10.7011 17.0247 15.1603 17.0247 19.6193 17.0247C20.2422 17.0247 20.2422 16.059 19.6193 16.059C15.1603 16.059 10.7011 16.059 6.24205 16.059C5.61919 16.059 5.61919 17.0247 6.24205 17.0247Z" fill="#333333"/>
</g>
<defs>
<clipPath id="clip0">
<rect x="0.808105" y="0.167511" width="24.463" height="24.463" rx="4.60658" fill="white"/>
</clipPath>
</defs>
</svg>
