<svg width="13" height="16" viewBox="0 0 13 16" fill="none" xmlns="http://www.w3.org/2000/svg">
<path d="M11.0678 2.70519L8.10978 3.54472C8.10651 3.54578 8.10323 3.54684 8.09995 3.54797C7.78365 3.65713 7.5711 3.95366 7.5711 4.28591V5.13663H4.64806L7.98885 1.82256C8.17338 1.6395 8.17338 1.34272 7.98885 1.15966L7.14233 0.319875C6.71243 -0.106625 6.0129 -0.106625 5.583 0.319875L4.71257 1.18334L4.26701 0.741344C3.77571 0.253937 2.97626 0.253937 2.4849 0.741344L0.747292 2.46506C0.255991 2.95247 0.255991 3.74553 0.747292 4.23294L1.19285 4.67494L0.322428 5.53841C-0.107476 5.96488 -0.107476 6.65881 0.322428 7.08528L1.16894 7.92503C1.35345 8.10809 1.65268 8.10813 1.83722 7.92503L3.03498 6.73684V13.9686C3.03498 15.0887 3.9536 16 5.08272 16H10.0604C11.1895 16 12.1081 15.0887 12.1081 13.9686C12.1081 13.6384 12.1081 3.59994 12.1081 3.44516C12.1081 2.91141 11.5784 2.53356 11.0678 2.70519ZM1.41557 3.12797L3.15314 1.40428C3.27597 1.28244 3.47585 1.28241 3.59873 1.40428L4.04426 1.84628L1.86113 4.01197L1.41557 3.57C1.29274 3.44813 1.29274 3.24984 1.41557 3.12797ZM1.50311 6.93062L0.990706 6.42234C0.929277 6.36141 0.929277 6.26225 0.990706 6.20131C1.32132 5.87334 6.08189 1.15084 6.25128 0.982813C6.31274 0.921875 6.41263 0.921875 6.47409 0.982813L6.98646 1.49112L1.50311 6.93062ZM11.1631 13.9686C11.1631 14.5718 10.6684 15.0625 10.0604 15.0625H5.08275C4.47473 15.0625 3.98009 14.5718 3.98009 13.9686V6.07419H11.1631V13.9686ZM11.1631 5.16188L8.51622 5.13666V4.39969L11.1631 3.66V5.16188Z" fill="#475356"/>
<path d="M5.46911 13.8436C5.73007 13.8436 5.94164 13.6337 5.94164 13.3748V7.76181C5.94164 7.50294 5.73007 7.29306 5.46911 7.29306C5.20815 7.29306 4.99659 7.50294 4.99659 7.76181V13.3748C4.99656 13.6337 5.20812 13.8436 5.46911 13.8436Z" fill="#475356"/>
<path d="M7.5716 13.8436C7.83256 13.8436 8.04412 13.6337 8.04412 13.3748V7.76181C8.04412 7.50294 7.83256 7.29306 7.5716 7.29306C7.31064 7.29306 7.09907 7.50294 7.09907 7.76181V13.3748C7.09904 13.6337 7.31061 13.8436 7.5716 13.8436Z" fill="#475356"/>
<path d="M9.67399 13.8436C9.93495 13.8436 10.1465 13.6337 10.1465 13.3748V7.76181C10.1465 7.50294 9.93495 7.29306 9.67399 7.29306C9.41303 7.29306 9.20146 7.50294 9.20146 7.76181V13.3748C9.20146 13.6337 9.41303 13.8436 9.67399 13.8436Z" fill="#475356"/>
</svg>
