<svg width="63" height="52" viewBox="0 0 63 52" fill="none" xmlns="http://www.w3.org/2000/svg">
<path d="M60.1682 0.5H2.83183C1.54307 0.5 0.5 1.56233 0.5 2.85185C0.5 4.14138 1.54307 5.2037 2.83183 5.2037H60.1682C61.4569 5.2037 62.5 4.14137 62.5 2.85185C62.5 1.56233 61.4569 0.5 60.1682 0.5ZM43.1321 15.8704H2.83183C1.54307 15.8704 0.5 16.9327 0.5 18.2222C0.5 19.5117 1.54307 20.5741 2.83183 20.5741H43.1321C44.4209 20.5741 45.464 19.5117 45.464 18.2222C45.464 16.9327 44.4209 15.8704 43.1321 15.8704ZM60.1682 31.4259H2.83183C1.54307 31.4259 0.5 32.4882 0.5 33.7778C0.5 35.0673 1.54307 36.1296 2.83183 36.1296H60.1682C61.4569 36.1296 62.5 35.0673 62.5 33.7778C62.5 32.4882 61.4569 31.4259 60.1682 31.4259ZM28.6607 46.7963H2.83183C1.54307 46.7963 0.5 47.8586 0.5 49.1481C0.5 50.4377 1.54307 51.5 2.83183 51.5H28.6607C29.9494 51.5 30.9925 50.4377 30.9925 49.1481C30.9925 47.8586 29.9494 46.7963 28.6607 46.7963Z" fill="black" stroke="black"/>
</svg>
