<svg width="13" height="12" viewBox="0 0 13 12" fill="none" xmlns="http://www.w3.org/2000/svg">
<path d="M10.0546 6.00049L5.7763 10.2788C5.3826 10.6725 5.3826 11.311 5.7763 11.7047C6.17 12.0984 6.80853 12.0984 7.20223 11.7047L12.194 6.71296C12.5877 6.31926 12.5877 5.68073 12.194 5.28702L7.20223 0.295264C6.80853 -0.0984211 6.17 -0.0984211 5.7763 0.295264C5.3826 0.68897 5.3826 1.3275 5.7763 1.7212L10.0546 6.00049ZM4.03062 6.006L0.788065 9.26055C0.389871 9.65974 0.389871 10.3078 0.788065 10.707C1.18628 11.1062 1.83128 11.1062 2.22949 10.707L6.19249 6.72896C6.59071 6.32977 6.52675 6.03747 6.13304 5.64377L2.22949 1.30452C1.83128 0.905323 1.18628 0.905323 0.788065 1.30452C0.389871 1.70371 0.389871 2.35173 0.788065 2.75095L4.03062 6.006Z" fill="#475356"/>
</svg>
