<svg width="12" height="12" viewBox="0 0 12 12" fill="none" xmlns="http://www.w3.org/2000/svg">
<path d="M2.43468 5.99951L6.71296 1.7212C7.10666 1.32749 7.10666 0.688965 6.71296 0.295279C6.31925 -0.0984263 5.68073 -0.0984263 5.28702 0.295279L0.295278 5.28704C-0.0984261 5.68074 -0.0984261 6.31927 0.295278 6.71298L5.28702 11.7047C5.68073 12.0984 6.31925 12.0984 6.71296 11.7047C7.10666 11.311 7.10666 10.6725 6.71296 10.2788L2.43468 5.99951ZM8.45864 5.994L11.7012 2.73945C12.0994 2.34026 12.0994 1.69224 11.7012 1.29302C11.303 0.893827 10.658 0.893827 10.2598 1.29302L6.29676 5.27104C5.89855 5.67023 5.96251 5.96253 6.35621 6.35623L10.2598 10.6955C10.658 11.0947 11.303 11.0947 11.7012 10.6955C12.0994 10.2963 12.0994 9.64827 11.7012 9.24905L8.45864 5.994Z" fill="#EDEEF2"/>
</svg>
