<svg width="12" height="12" viewBox="0 0 12 12" fill="none" xmlns="http://www.w3.org/2000/svg">
<path d="M9.56532 6.00049L5.28704 10.2788C4.89334 10.6725 4.89334 11.311 5.28704 11.7047C5.68075 12.0984 6.31927 12.0984 6.71298 11.7047L11.7047 6.71296C12.0984 6.31926 12.0984 5.68073 11.7047 5.28702L6.71298 0.295264C6.31927 -0.0984213 5.68075 -0.0984213 5.28704 0.295264C4.89334 0.68897 4.89334 1.3275 5.28704 1.7212L9.56532 6.00049ZM3.54136 6.006L0.298807 9.26055C-0.0993872 9.65974 -0.0993872 10.3078 0.298807 10.707C0.697021 11.1062 1.34202 11.1062 1.74023 10.707L5.70324 6.72896C6.10145 6.32977 6.03749 6.03747 5.64379 5.64377L1.74023 1.30452C1.34202 0.905323 0.697021 0.905323 0.298807 1.30452C-0.0993872 1.70371 -0.0993872 2.35173 0.298807 2.75095L3.54136 6.006Z" fill="#EDEEF2"/>
</svg>
