<svg width="26" height="25" viewBox="0 0 26 25" fill="none" xmlns="http://www.w3.org/2000/svg">
<g clip-path="url(#clip0)">
<path d="M12.9654 24.6306C19.7207 24.6306 25.197 19.1543 25.197 12.399C25.197 5.64376 19.7207 0.167511 12.9654 0.167511C6.21013 0.167511 0.733887 5.64376 0.733887 12.399C0.733887 19.1543 6.21013 24.6306 12.9654 24.6306Z" fill="#FFC10E"/>
<path d="M20.9946 12.4071C20.9946 16.8418 17.3993 20.4367 12.9646 20.4367C8.53015 20.4367 4.93506 16.8418 4.93506 12.4071H20.9946Z" fill="white"/>
<path d="M9.24765 10.1009C10.3086 10.1009 11.1686 9.24083 11.1686 8.1799C11.1686 7.11897 10.3086 6.25891 9.24765 6.25891C8.18671 6.25891 7.32666 7.11897 7.32666 8.1799C7.32666 9.24083 8.18671 10.1009 9.24765 10.1009Z" fill="#333333"/>
<path d="M16.5118 10.1009C17.5727 10.1009 18.4328 9.2408 18.4328 8.17987C18.4328 7.11894 17.5727 6.25888 16.5118 6.25888C15.4509 6.25888 14.5908 7.11894 14.5908 8.17987C14.5908 9.2408 15.4509 10.1009 16.5118 10.1009Z" fill="#333333"/>
</g>
<defs>
<clipPath id="clip0">
<rect x="0.733887" y="0.167511" width="24.463" height="24.463" rx="4.60658" fill="white"/>
</clipPath>
</defs>
</svg>
