<svg width="84" height="66" viewBox="0 0 84 66" fill="none" xmlns="http://www.w3.org/2000/svg">
<path d="M17.9629 53.2104H12.2946V47.5421C12.2946 46.4151 11.3817 45.5 10.2525 45.5C9.12323 45.5 8.21038 46.4151 8.21038 47.5421V53.2104H2.54211C1.41285 53.2104 0.5 54.1254 0.5 55.2525C0.5 56.3795 1.41285 57.2946 2.54211 57.2946H8.21038V62.9629C8.21038 64.0899 9.12323 65.005 10.2525 65.005C11.3817 65.005 12.2946 64.0899 12.2946 62.9629V57.2946H17.9629C19.0921 57.2946 20.005 56.3795 20.005 55.2525C20.005 54.1254 19.0921 53.2104 17.9629 53.2104Z" fill="black" stroke="black"/>
<path d="M78.0312 63.75H32.1769C29.3222 63.75 27 61.4278 27 58.5731V51.1774C27 48.3222 29.3222 46 32.1769 46H78.0312C80.8859 46 83.2082 48.3222 83.2082 51.1774V58.5731C83.2082 61.4278 80.8859 63.75 78.0312 63.75ZM32.1769 50.4375C31.7685 50.4375 31.4375 50.769 31.4375 51.1774V58.5731C31.4375 58.9815 31.7685 59.3125 32.1769 59.3125H78.0312C78.4391 59.3125 78.7707 58.9815 78.7707 58.5731V51.1774C78.7707 50.769 78.4391 50.4375 78.0312 50.4375H32.1769Z" fill="#757575"/>
<path d="M55.1038 63.75C53.8791 63.75 52.8851 62.756 52.8851 61.5313V48.2188C52.8851 46.994 53.8791 46 55.1038 46C56.3286 46 57.3226 46.994 57.3226 48.2188V61.5313C57.3226 62.756 56.3286 63.75 55.1038 63.75Z" fill="#757575"/>
<path d="M78.0312 40.75H32.1769C29.3222 40.75 27 38.4278 27 35.5731V28.1774C27 25.3222 29.3222 23 32.1769 23H78.0312C80.8859 23 83.2082 25.3222 83.2082 28.1774V35.5731C83.2082 38.4278 80.8859 40.75 78.0312 40.75ZM32.1769 27.4375C31.7685 27.4375 31.4375 27.769 31.4375 28.1774V35.5731C31.4375 35.9815 31.7685 36.3125 32.1769 36.3125H78.0312C78.4391 36.3125 78.7707 35.9815 78.7707 35.5731V28.1774C78.7707 27.769 78.4391 27.4375 78.0312 27.4375H32.1769Z" fill="black"/>
<path d="M55.1038 40.75C53.8791 40.75 52.8851 39.756 52.8851 38.5313V25.2188C52.8851 23.994 53.8791 23 55.1038 23C56.3286 23 57.3226 23.994 57.3226 25.2188V38.5313C57.3226 39.756 56.3286 40.75 55.1038 40.75Z" fill="black"/>
<path d="M78.0312 17.75H32.1769C29.3222 17.75 27 15.4278 27 12.5731V5.17744C27 2.32221 29.3222 0 32.1769 0H78.0312C80.8859 0 83.2082 2.32221 83.2082 5.17744V12.5731C83.2082 15.4278 80.8859 17.75 78.0312 17.75ZM32.1769 4.4375C31.7685 4.4375 31.4375 4.76901 31.4375 5.17744V12.5731C31.4375 12.9815 31.7685 13.3125 32.1769 13.3125H78.0312C78.4391 13.3125 78.7707 12.9815 78.7707 12.5731V5.17744C78.7707 4.76901 78.4391 4.4375 78.0312 4.4375H32.1769Z" fill="black"/>
<path d="M55.1038 17.75C53.8791 17.75 52.8851 16.756 52.8851 15.5313V2.21875C52.8851 0.993995 53.8791 0 55.1038 0C56.3286 0 57.3226 0.993995 57.3226 2.21875V15.5313C57.3226 16.756 56.3286 17.75 55.1038 17.75Z" fill="black"/>
</svg>
