<svg width="11" height="11" viewBox="0 0 11 11" fill="none" xmlns="http://www.w3.org/2000/svg">
<path d="M10.1598 0.339125C9.70806 -0.112628 8.97558 -0.113454 8.52301 0.339124L5.24947 3.61266L1.97593 0.339125C1.52418 -0.112628 0.791703 -0.113454 0.339124 0.339125C-0.113454 0.791703 -0.112629 1.52418 0.339124 1.97593L3.61266 5.24947L0.339124 8.523C-0.113454 8.97558 -0.112628 9.70806 0.339124 10.1598C0.790877 10.6116 1.52335 10.6124 1.97593 10.1598L5.24947 6.88628L8.52301 10.1598C8.97476 10.6116 9.70724 10.6124 10.1598 10.1598C10.6124 9.70724 10.6116 8.97476 10.1598 8.52301L6.88628 5.24947L10.1598 1.97593C10.6124 1.52335 10.6116 0.790877 10.1598 0.339125Z" fill="#475356"/>
</svg>
