<svg width="12" height="12" viewBox="0 0 12 12" fill="none" xmlns="http://www.w3.org/2000/svg">
<path d="M10.9103 1.08964C10.4585 0.637891 9.72607 0.637065 9.27349 1.08964L5.99996 4.36318L2.72642 1.08964C2.27467 0.637891 1.54219 0.637065 1.08961 1.08964C0.637034 1.54222 0.63786 2.2747 1.08961 2.72645L4.36315 5.99999L1.08961 9.27352C0.637034 9.7261 0.63786 10.4586 1.08961 10.9103C1.54137 11.3621 2.27384 11.3629 2.72642 10.9103L5.99996 7.6368L9.27349 10.9103C9.72525 11.3621 10.4577 11.3629 10.9103 10.9103C11.3629 10.4578 11.3621 9.72528 10.9103 9.27353L7.63677 5.99999L10.9103 2.72645C11.3629 2.27387 11.3621 1.5414 10.9103 1.08964Z" fill="#91A7AB"/>
</svg>
