<svg width="36" height="37" viewBox="0 0 36 37" fill="none" xmlns="http://www.w3.org/2000/svg">
<path d="M28.9708 5.24643H7.03029C5.97469 5.24643 5.11641 6.11349 5.11641 7.17933C5.11641 16.0213 5.11641 20.9786 5.11641 29.8205C5.11641 30.8871 5.97469 31.7546 7.03029 31.7546H28.9708C30.0256 31.7546 30.8839 30.8876 30.8839 29.8205C30.8839 20.9786 30.8839 16.0213 30.8839 7.17933C30.8839 6.11349 30.0254 5.24643 28.9708 5.24643ZM22.6094 13.9791L15.3113 19.6469C15.2569 19.6893 15.1926 19.7102 15.1296 19.7097C15.0675 19.7097 15.0045 19.6899 14.9506 19.6491C14.8433 19.5691 14.8032 19.4253 14.8521 19.2992L16.3201 15.5454H7.71988C7.55548 15.5454 7.42062 15.4113 7.42219 15.245V12.2368C7.42167 12.0707 7.55548 11.9368 7.72042 11.9355L16.32 11.9368L14.8526 8.18307C14.8037 8.05724 14.8438 7.91423 14.951 7.83246C15.0576 7.75059 15.205 7.75059 15.3117 7.83352L22.6094 13.5014C22.6826 13.5585 22.7256 13.6476 22.7256 13.7404C22.7252 13.8345 22.6817 13.923 22.6094 13.9791ZM30.5601 0H5.44012C3.54082 0 0 3.55595 0 5.47442V31.5242C0 33.444 3.54082 37 5.44005 37H30.5599C32.4593 37 36 33.444 36 31.5242V5.47442C36 3.55595 32.4593 0 30.5601 0ZM32.9479 29.8205C32.9479 31.6414 30.7733 33.8408 28.9708 33.8408H7.03029C5.22736 33.8408 3.05227 31.6422 3.05227 29.8205C3.05227 20.9786 3.05227 7.17933 3.05227 7.17933C3.05227 5.35859 5.22685 3.15934 7.03029 3.15934H28.9708C30.7728 3.15934 32.9479 5.35797 32.9479 7.17933V18.4999V29.8205Z" fill="#475356"/>
</svg>
