<svg width="25" height="25" viewBox="0 0 25 25" fill="none" xmlns="http://www.w3.org/2000/svg">
<g clip-path="url(#clip0)">
<path d="M12.5762 24.6305C19.3315 24.6305 24.8077 19.1543 24.8077 12.399C24.8077 5.64373 19.3315 0.167511 12.5762 0.167511C5.82095 0.167511 0.344727 5.64373 0.344727 12.399C0.344727 19.1543 5.82095 24.6305 12.5762 24.6305Z" fill="#FFC10E"/>
<path d="M18.7551 18.445C15.3367 14.9548 9.76059 14.9693 6.36208 18.4813C5.92907 18.9286 6.61124 19.6124 7.04482 19.1641C10.0835 16.0242 15.0137 16.0049 18.0723 19.1278C18.5086 19.5734 19.191 18.89 18.7551 18.445Z" fill="#333333"/>
<path d="M8.85945 10.1011C9.92037 10.1011 10.7804 9.24108 10.7804 8.18016C10.7804 7.11923 9.92037 6.25919 8.85945 6.25919C7.79852 6.25919 6.93848 7.11923 6.93848 8.18016C6.93848 9.24108 7.79852 10.1011 8.85945 10.1011Z" fill="#333333"/>
<path d="M16.1221 10.1011C17.1831 10.1011 18.0431 9.24108 18.0431 8.18016C18.0431 7.11923 17.1831 6.25919 16.1221 6.25919C15.0612 6.25919 14.2012 7.11923 14.2012 8.18016C14.2012 9.24108 15.0612 10.1011 16.1221 10.1011Z" fill="#333333"/>
</g>
<defs>
<clipPath id="clip0">
<rect x="0.344727" y="0.167511" width="24.463" height="24.463" rx="4.60658" fill="white"/>
</clipPath>
</defs>
</svg>
