<svg width="73" height="72" viewBox="0 0 73 72" fill="none" xmlns="http://www.w3.org/2000/svg">
<path d="M36.4571 69.9999C55.4604 69.9999 70.9142 54.8042 70.9142 35.9999C70.9142 17.1956 55.4604 2 36.4571 2C17.4538 2 2 17.1956 2 35.9999C2 54.8042 17.4538 69.9999 36.4571 69.9999Z" stroke="#475356" stroke-width="4"/>
<path d="M22.1357 54.0489C30.0042 46.033 42.7669 45.984 50.6863 53.956C51.0753 54.3478 51.5466 54.5111 52.0099 54.4789C52.4597 54.4477 52.8669 54.2355 53.1661 53.9403C53.4652 53.6451 53.6828 53.241 53.719 52.7918C53.7562 52.3288 53.5965 51.8566 53.2076 51.4651C43.9405 42.1365 28.8239 42.1752 19.6104 51.5622C19.224 51.9558 19.067 52.429 19.1055 52.8916C19.1428 53.3407 19.3604 53.7448 19.6595 54.0401C19.9586 54.3352 20.3656 54.5476 20.8154 54.5778C21.279 54.6089 21.7491 54.4431 22.1357 54.0489ZM22.1357 54.0489L21.7789 53.6986L22.1357 54.0489Z" fill="#475356" stroke="#475356"/>
<path d="M26.5916 30.4881C29.6762 30.4881 32.189 28.0209 32.189 24.9625C32.189 21.9041 29.6762 19.4368 26.5916 19.4368C23.5069 19.4368 20.9941 21.9041 20.9941 24.9625C20.9941 28.0209 23.5069 30.4881 26.5916 30.4881Z" fill="#475356" stroke="#475356"/>
<path d="M45.867 30.4881C48.9516 30.4881 51.4644 28.0209 51.4644 24.9625C51.4644 21.9041 48.9516 19.4368 45.867 19.4368C42.7823 19.4368 40.2695 21.9041 40.2695 24.9625C40.2695 28.0209 42.7823 30.4881 45.867 30.4881Z" fill="#475356" stroke="#475356"/>
</svg>
