<svg width="18" height="18" viewBox="0 0 18 18" fill="none" xmlns="http://www.w3.org/2000/svg">
<path fill-rule="evenodd" clip-rule="evenodd" d="M17.201 15.7733C17.6018 16.1682 17.602 16.812 17.2006 17.2069C16.8039 17.5977 16.1633 17.5977 15.7666 17.2069L11.9261 13.4275C10.7433 14.2586 9.29642 14.7491 7.73353 14.7491C3.74711 14.7491 0.501953 11.5671 0.501953 7.62455C0.501953 3.68201 3.74711 0.5 7.73353 0.5C11.72 0.5 14.9651 3.68201 14.9656 7.62448C14.9656 9.29419 14.3773 10.8246 13.4031 12.0361L17.201 15.7733ZM2.5377 7.62455C2.5377 10.4366 4.85637 12.7299 7.73353 12.7299C10.6107 12.7299 12.9294 10.4366 12.9294 7.62455C12.9294 4.81247 10.6107 2.51923 7.73353 2.51923C4.85637 2.51923 2.5377 4.81247 2.5377 7.62455Z" fill="#91A7AB"/>
</svg>
