<svg width="25" height="25" viewBox="0 0 25 25" fill="none" xmlns="http://www.w3.org/2000/svg">
<g clip-path="url(#clip0)">
<path d="M12.5025 24.6305C19.2577 24.6305 24.734 19.1543 24.734 12.399C24.734 5.64373 19.2577 0.167511 12.5025 0.167511C5.74722 0.167511 0.270996 5.64373 0.270996 12.399C0.270996 19.1543 5.74722 24.6305 12.5025 24.6305Z" fill="#FFC10E"/>
<path d="M8.78572 10.1011C9.84664 10.1011 10.7067 9.24108 10.7067 8.18016C10.7067 7.11923 9.84664 6.25919 8.78572 6.25919C7.72479 6.25919 6.86475 7.11923 6.86475 8.18016C6.86475 9.24108 7.72479 10.1011 8.78572 10.1011Z" fill="#333333"/>
<path d="M16.0484 10.1011C17.1093 10.1011 17.9694 9.24108 17.9694 8.18016C17.9694 7.11923 17.1093 6.25919 16.0484 6.25919C14.9875 6.25919 14.1274 7.11923 14.1274 8.18016C14.1274 9.24108 14.9875 10.1011 16.0484 10.1011Z" fill="#333333"/>
<path d="M17.9887 16.5229C14.9288 19.6369 10.0055 19.6124 6.97109 16.4766C6.53751 16.0283 5.85534 16.712 6.28835 17.1593C9.68314 20.6677 15.2514 20.6868 18.6715 17.2056C19.1081 16.7612 18.4256 16.0781 17.9887 16.5229Z" fill="#333333"/>
</g>
<defs>
<clipPath id="clip0">
<rect x="0.270996" y="0.167511" width="24.463" height="24.463" rx="4.60658" fill="white"/>
</clipPath>
</defs>
</svg>
