<svg width="58" height="64" viewBox="0 0 58 64" fill="none" xmlns="http://www.w3.org/2000/svg">
<path d="M49.0805 14.8269C44.0945 9.83063 37.5993 6.89738 30.6249 6.45038V3.75H33.3749C34.4104 3.75 35.2499 2.9105 35.2499 1.875C35.2499 0.8395 34.4104 0 33.3749 0H24.1249C23.0894 0 22.2499 0.8395 22.2499 1.875C22.2499 2.9105 23.0894 3.75 24.1249 3.75H26.8749V6.45038C22.0928 6.75688 17.5364 8.2325 13.537 10.7409L11.7559 8.95613C10.889 8.0875 9.73588 7.60925 8.50875 7.60925C7.28163 7.60925 6.1285 8.08763 5.26175 8.95613L2.55288 11.6709C0.76975 13.4575 0.76975 16.3648 2.55288 18.1515L4.34613 19.9485C1.51575 24.4774 0 29.7189 0 35.1942C0 42.8877 2.99 50.1211 8.41925 55.5616C13.8495 61.0031 21.0697 64 28.7499 64C36.43 64 43.6502 61.0031 49.0805 55.5616C54.5098 50.1211 57.4997 42.8877 57.4997 35.1942C57.4997 27.5007 54.5098 20.2674 49.0805 14.8269ZM5.20725 14.3199L7.91625 11.6053C8.12975 11.3914 8.37912 11.3594 8.50887 11.3594C8.63863 11.3594 8.88813 11.3912 9.10163 11.6053L10.4604 12.9668C9.75575 13.5509 9.07425 14.1707 8.41938 14.827C7.76638 15.4814 7.1495 16.1622 6.56812 16.8662L5.20725 15.5026C4.88175 15.1765 4.88175 14.6459 5.20725 14.3199ZM28.7499 60.25C14.9649 60.25 3.75 49.01 3.75 35.1942C3.75 21.3785 14.9649 10.1385 28.7499 10.1385C42.5349 10.1385 53.7497 21.3784 53.7497 35.1942C53.7497 49.0101 42.5349 60.25 28.7499 60.25Z" fill="black"/>
<path d="M28.7496 13.6533C16.8943 13.6533 7.24945 23.3165 7.24945 35.1943C7.24945 47.072 16.8943 56.7353 28.7496 56.7353C40.6048 56.7353 50.2497 47.072 50.2497 35.1943C50.2497 23.3165 40.6048 13.6533 28.7496 13.6533ZM30.6246 52.886V50.6944C30.6246 49.6589 29.7851 48.8194 28.7496 48.8194C27.7141 48.8194 26.8746 49.6589 26.8746 50.6944V52.886C18.5801 52.0091 11.9708 45.3834 11.0979 37.0693H13.2496C14.2851 37.0693 15.1246 36.2298 15.1246 35.1943C15.1246 34.1588 14.2851 33.3193 13.2496 33.3193H11.0981C11.9708 25.0051 18.5801 18.3794 26.8746 17.5025V19.6941C26.8746 20.7296 27.7141 21.5691 28.7496 21.5691C29.7851 21.5691 30.6246 20.7296 30.6246 19.6941V17.5025C38.9191 18.3794 45.5283 25.0051 46.4012 33.3193H44.2496C43.2141 33.3193 42.3746 34.1588 42.3746 35.1943C42.3746 36.2298 43.2141 37.0693 44.2496 37.0693H46.4011C45.5283 45.3834 38.9191 52.0091 30.6246 52.886Z" fill="black"/>
<path d="M33.3748 34.1121H30.7296V26.5287C30.7296 25.4932 29.8901 24.6537 28.8546 24.6537C27.8191 24.6537 26.9796 25.4932 26.9796 26.5287V35.9871C26.9796 37.0226 27.8191 37.8621 28.8546 37.8621H33.3748C34.4103 37.8621 35.2498 37.0226 35.2498 35.9871C35.2498 34.9516 34.4103 34.1121 33.3748 34.1121Z" fill="black"/>
</svg>
