<svg width="26" height="25" viewBox="0 0 26 25" fill="none" xmlns="http://www.w3.org/2000/svg">
<g clip-path="url(#clip0)">
<path d="M13.1133 24.6304C19.8686 24.6304 25.3448 19.1542 25.3448 12.3989C25.3448 5.64364 19.8686 0.167419 13.1133 0.167419C6.35806 0.167419 0.881836 5.64364 0.881836 12.3989C0.881836 19.1542 6.35806 24.6304 13.1133 24.6304Z" fill="#FFC10E"/>
<path d="M19.2919 18.445C15.8734 14.9548 10.2977 14.9693 6.89895 18.4813C6.46593 18.9286 7.1481 19.6121 7.58168 19.164C10.6204 16.024 15.5502 16.0049 18.6092 19.1277C19.0455 19.5734 19.7278 18.89 19.2919 18.445Z" fill="#333333"/>
<path d="M9.39656 10.1011C10.4575 10.1011 11.3175 9.24105 11.3175 8.18013C11.3175 7.1192 10.4575 6.25916 9.39656 6.25916C8.33563 6.25916 7.47559 7.1192 7.47559 8.18013C7.47559 9.24105 8.33563 10.1011 9.39656 10.1011Z" fill="#333333"/>
<path d="M16.6593 10.1011C17.7202 10.1011 18.5802 9.24105 18.5802 8.18013C18.5802 7.1192 17.7202 6.25916 16.6593 6.25916C15.5983 6.25916 14.7383 7.1192 14.7383 8.18013C14.7383 9.24105 15.5983 10.1011 16.6593 10.1011Z" fill="#333333"/>
<path d="M18.5949 9.90305C18.5949 9.90305 17.1746 11.6515 17.1746 13.4553C17.1746 14.24 17.81 14.8758 18.5947 14.876C19.3802 14.8757 20.0158 14.2398 20.0158 13.4551C20.0158 12.5817 18.5949 9.90305 18.5949 9.90305Z" fill="#A2D4DE"/>
</g>
<defs>
<clipPath id="clip0">
<rect x="0.881836" y="0.167419" width="24.463" height="24.463" rx="4.60658" fill="white"/>
</clipPath>
</defs>
</svg>
