<svg width="14" height="13" viewBox="0 0 14 13" fill="none" xmlns="http://www.w3.org/2000/svg">
<path d="M4.87535 4.5119L4.87535 4.5119C4.64285 4.74436 4.26581 4.74445 4.0333 4.51186L4.87535 4.5119ZM4.87535 4.5119L6.4044 2.98296M4.87535 4.5119L6.4044 2.98296M6.65407 1.12364L6.62239 1.08496C6.60811 1.09665 6.59455 1.10895 6.58163 1.12167L6.58066 1.12254L6.58061 1.12249L6.57875 1.12435L4.0333 3.66977L4.03329 3.66978C3.8008 3.90231 3.80075 4.27931 4.03329 4.51186L6.69558 1.03421C6.69557 1.03422 6.69556 1.03422 6.69555 1.03423C6.69419 1.03503 6.6927 1.0359 6.69111 1.03683C6.68469 1.04059 6.67665 1.04529 6.66913 1.05032C6.66222 1.05494 6.65488 1.0605 6.64925 1.06477C6.64736 1.06619 6.64567 1.06748 6.64425 1.06853L6.64417 1.06859C6.64309 1.06939 6.64165 1.07044 6.63998 1.07165C6.635 1.07525 6.62799 1.08033 6.62223 1.08508L6.65407 1.12364ZM6.65407 1.12364C6.65851 1.11997 6.6631 1.11665 6.6677 1.11332L6.67403 1.10869L6.61593 1.15807C6.62811 1.14604 6.6408 1.13451 6.65407 1.12364ZM6.76771 1.05244L6.76192 1.05513C6.75547 1.05812 6.74901 1.06111 6.74269 1.06447L7.34553 1.12356C7.34162 1.12036 7.33757 1.11743 7.33354 1.11451L7.33353 1.11451L7.32698 1.10971L7.32192 1.10588L7.32191 1.10588C7.31557 1.10107 7.30925 1.09627 7.30262 1.09182C7.29702 1.08806 7.29127 1.08469 7.2855 1.08131L7.2855 1.0813L7.27953 1.07778M6.76771 1.05244L6.77412 1.04936L6.77413 1.04936C6.77973 1.04666 6.78533 1.04396 6.79113 1.04156C6.79693 1.03916 6.80283 1.03709 6.80873 1.03502L6.80874 1.03502L6.81563 1.03258M6.76771 1.05244L6.74637 1.00722C6.74777 1.00656 6.74942 1.00576 6.75123 1.00489C6.7571 1.00206 6.76476 0.99836 6.77201 0.99536C6.77924 0.992369 6.78727 0.989556 6.79346 0.987388C6.79541 0.986703 6.79719 0.986082 6.79869 0.98554M6.76771 1.05244L6.79869 0.98554M6.81563 1.03258L6.8218 1.03033C6.82832 1.02794 6.83486 1.02555 6.84153 1.02353C6.84734 1.02179 6.8532 1.02036 6.85906 1.01894L6.86611 1.0172L6.87317 1.01537C6.87984 1.01363 6.88651 1.01189 6.89334 1.01055M6.81563 1.03258L6.79869 0.98554M6.81563 1.03258L6.7987 0.985537L6.79869 0.98554M6.89334 1.01055C6.90033 1.00915 6.90738 1.00818 6.91445 1.00722L6.92138 1.00625M6.89334 1.01055L6.88369 0.961487C6.88366 0.961492 6.88364 0.961497 6.88361 0.961502M6.89334 1.01055L6.88354 0.961516L6.88361 0.961502M6.92138 1.00625L6.92937 1.00502C6.93493 1.00414 6.94048 1.00326 6.94611 1.00269C6.96294 1.00105 6.97982 1.00022 6.99669 1.00015M6.92138 1.00625L6.91428 0.956761C6.91263 0.956998 6.91077 0.957251 6.90876 0.957525C6.90151 0.958515 6.89226 0.959775 6.88361 0.961502M6.92138 1.00625L6.88361 0.961502M6.99669 1.00015L6.99989 1L7.00313 1.00015M6.99669 1.00015L6.99442 0.950197L6.99542 0.950151L6.99762 0.950052L7.00214 0.949846L7.00213 0.95005L7.00443 0.950154M6.99669 1.00015L7.00443 0.950154M7.00313 1.00015C7.02 1.00025 7.03683 1.00105 7.05363 1.00269C7.05955 1.00327 7.06536 1.0042 7.07116 1.00512L7.07116 1.00512L7.07891 1.00633M7.00313 1.00015L7.00537 0.950196L7.00443 0.950154M7.00313 1.00015L7.00345 0.950146C7.00378 0.950149 7.0041 0.950151 7.00443 0.950154M7.07891 1.00633L7.08675 1.00743C7.09331 1.00833 7.09986 1.00924 7.10636 1.01051C7.11337 1.01191 7.12026 1.01371 7.12715 1.01551L7.13436 1.01738L7.14176 1.0192L7.14176 1.0192C7.14721 1.02051 7.15267 1.02183 7.15807 1.02345C7.16495 1.02554 7.17161 1.02799 7.17828 1.03044L7.17828 1.03044L7.18483 1.03284M7.07891 1.00633L7.08617 0.956858M7.07891 1.00633L7.08617 0.956858M7.18483 1.03284L7.19117 1.03508C7.19695 1.03711 7.20273 1.03915 7.20843 1.04149C7.2144 1.04397 7.22016 1.04674 7.22593 1.04952L7.22594 1.04952L7.2328 1.0528L7.2394 1.05588C7.24526 1.05859 7.2511 1.0613 7.25683 1.06436C7.26277 1.06755 7.26847 1.07104 7.27418 1.07453L7.27953 1.07778M7.18483 1.03284L7.2018 0.985802C7.20178 0.985796 7.20176 0.98579 7.20175 0.985784M7.18483 1.03284L7.20175 0.985784M7.27953 1.07778L7.30513 1.03484C7.3065 1.03565 7.30806 1.03657 7.30977 1.03757C7.31575 1.04107 7.32348 1.0456 7.33049 1.05031M7.27953 1.07778L7.30537 1.03498C7.30406 1.03419 7.3026 1.0333 7.30104 1.03234C7.29519 1.02876 7.2878 1.02424 7.2805 1.02032L7.28041 1.02027C7.27327 1.01645 7.26539 1.0128 7.25926 1.00997C7.25737 1.0091 7.25566 1.0083 7.25418 1.0076L7.2541 1.00756C7.25258 1.00685 7.2508 1.00599 7.24885 1.00505C7.24278 1.00213 7.23497 0.998368 7.22759 0.995307V0.995307L7.22745 0.995248C7.22041 0.992355 7.21273 0.989655 7.20671 0.987538L7.33049 1.05031M7.33049 1.05031C7.33846 1.05566 7.34629 1.0616 7.35271 1.06648L7.33049 1.05031ZM7.20175 0.985784C7.20017 0.985216 7.19842 0.984569 7.19652 0.983872C7.18967 0.981346 7.181 0.978155 7.17256 0.9756L7.17248 0.975576C7.16565 0.973521 7.15771 0.971603 7.15185 0.970187C7.14983 0.9697 7.14806 0.969273 7.14667 0.968919C7.14496 0.968485 7.14302 0.967979 7.14092 0.96743C7.13379 0.965562 7.12477 0.9632 7.11617 0.96148L7.11598 0.961443C7.10795 0.959869 7.09908 0.958649 7.09217 0.957699C7.08994 0.957392 7.08791 0.957113 7.08619 0.95686L7.20175 0.985784ZM7.08617 0.956858C7.08473 0.956645 7.0829 0.956353 7.08081 0.95602C7.07458 0.955028 7.06605 0.953667 7.05851 0.952929L7.05848 0.952926C7.04037 0.951162 7.02234 0.950296 7.00443 0.950154M7.08617 0.956858L7.00443 0.950154M6.88361 0.961502C6.87514 0.963173 6.86625 0.965498 6.85934 0.967303C6.85734 0.967828 6.85549 0.96831 6.85388 0.968718C6.85233 0.96911 6.8505 0.969554 6.84849 0.970044C6.84231 0.971547 6.83438 0.973477 6.8272 0.975624L6.82703 0.975674C6.81883 0.978157 6.81037 0.981264 6.80368 0.983719L6.88361 0.961502ZM7.42098 1.12445L7.42103 1.1245L9.9663 3.66981C10.1988 3.90235 10.1988 4.27936 9.9663 4.5119M7.42098 1.12445L9.54523 4.63633C9.40567 4.63633 9.26607 4.58305 9.15956 4.47655L7.59531 2.91229V2.983M7.42098 1.12445C7.40697 1.11048 7.39236 1.09734 7.37729 1.08495L7.37721 1.08489M7.42098 1.12445L7.37721 1.08489M9.9663 4.5119L9.93094 4.47655L9.9663 4.51189C9.9663 4.5119 9.9663 4.5119 9.9663 4.5119ZM9.9663 4.5119C9.85003 4.6282 9.69755 4.68633 9.54523 4.68633C9.39295 4.68633 9.24046 4.62816 9.12421 4.5119L7.59531 2.983M7.59531 2.983V9.54538C7.59531 9.87423 7.3287 10.1408 6.99985 10.1408C6.671 10.1408 6.4044 9.87423 6.4044 9.54538V2.98296M7.59531 2.983L7.54531 2.933V9.54538C7.54531 9.84662 7.30109 10.0908 6.99985 10.0908C6.69862 10.0908 6.4544 9.84662 6.4544 9.54538L6.4044 2.98296M7.37721 1.08489C7.37217 1.08075 7.36531 1.07577 7.36078 1.07249M7.37721 1.08489L7.36078 1.07249M7.36078 1.07249C7.35918 1.07133 7.35787 1.07038 7.35704 1.06975L7.36078 1.07249ZM12.4545 6.40455C12.1257 6.40455 11.8591 6.67115 11.8591 7V11.1318H2.14091V7C2.14091 6.67115 1.87431 6.40455 1.54545 6.40455C1.2166 6.40455 0.95 6.67115 0.95 7V11.7273C0.95 12.0561 1.2166 12.3227 1.54545 12.3227H12.4545C12.7834 12.3227 13.05 12.0561 13.05 11.7273V7C13.05 6.67115 12.7834 6.40455 12.4545 6.40455Z" fill="#475356" stroke="#475356" stroke-width="0.1"/>
</svg>
