<svg xmlns="http://www.w3.org/2000/svg" viewBox="0 0 64.88 61.73"><defs><style>.cls-1{fill:#475356;stroke:#475356;stroke-miterlimit:10;stroke-width:2px;}</style></defs><title>Asset 1</title><g id="Layer_2"><g id="Layer_1-2"><path class="cls-1" d="M21.12,19.42l8.46-8.55V46.28a2.86,2.86,0,1,0,5.71,0V10.87l8.46,8.55a2.83,2.83,0,0,0,4,0,2.91,2.91,0,0,0,0-4.09L34.46,1.85l-.21-.19-.1-.08L34,1.49l-.12-.08-.12-.07-.12-.06-.13-.06-.12,0-.14-.05-.13,0-.15,0-.14,0h-.13l-.27,0h0l-.26,0H32l-.15,0-.14,0-.13,0-.14,0-.13.05-.12.06-.13.06L31,1.41l-.13.08-.12.09a.39.39,0,0,0-.1.08,1.12,1.12,0,0,0-.2.18h0L17.08,15.33a2.91,2.91,0,0,0,0,4.09A2.83,2.83,0,0,0,21.12,19.42Z"/><path class="cls-1" d="M61,29.9a2.88,2.88,0,0,0-2.86,2.89V55H6.72V32.79a2.86,2.86,0,1,0-5.72,0V57.84a2.87,2.87,0,0,0,2.86,2.89H61a2.87,2.87,0,0,0,2.86-2.89V32.79A2.88,2.88,0,0,0,61,29.9Z"/></g></g></svg>